<svg width="145" height="14" viewBox="0 0 145 14" xmlns="http://www.w3.org/2000/svg">
    <title>
        John Moods
    </title>
    <g fill-rule="nonzero" fill="none">
        <path d="M7.031 13.334c1.196 0 2.23-.17 3.103-.51.873-.34 1.605-.808 2.197-1.406.592-.598 1.031-1.315 1.318-2.153.288-.838.431-1.755.431-2.751V.396H9.457V6.69c0 .668-.07 1.234-.21 1.697-.142.463-.34.838-.599 1.125-.257.287-.565.495-.922.624-.358.129-.76.193-1.205.193-.433 0-.843-.07-1.23-.21-.387-.141-.72-.35-1.002-.625-.281-.275-.498-.62-.65-1.037-.153-.416-.223-.888-.211-1.415l.017-.703H.633V7.78c0 .832.167 1.588.5 2.268.335.68.795 1.263 1.38 1.749.587.486 1.266.864 2.04 1.134.773.27 1.6.404 2.478.404v-.001zm14.977.053c.808 0 1.57-.13 2.285-.387.715-.258 1.339-.606 1.872-1.046.533-.44.955-.955 1.266-1.547.31-.592.465-1.221.465-1.89 0-.75-.137-1.43-.413-2.038-.275-.61-.668-1.125-1.177-1.547-.51-.422-1.125-.742-1.846-.958-.72-.217-1.538-.326-2.452-.326-.82 0-1.585.13-2.294.387-.71.258-1.33.604-1.863 1.037-.534.434-.953.95-1.257 1.547-.305.598-.457 1.23-.457 1.899 0 .668.126 1.297.378 1.89.252.591.624 1.107 1.116 1.546.492.44 1.104.788 1.837 1.046.732.258 1.579.387 2.54.387zm.914-2.373c-.399 0-.768-.07-1.108-.211-.34-.14-.635-.337-.887-.59-.252-.251-.451-.544-.598-.878-.146-.334-.22-.7-.22-1.099 0-.386.074-.75.22-1.09.147-.34.346-.638.598-.896s.548-.46.887-.606c.34-.147.71-.22 1.108-.22.387 0 .75.073 1.09.22.34.146.635.348.887.606s.455.557.607.896c.152.34.228.704.228 1.09 0 .387-.076.75-.228 1.09-.152.34-.355.636-.607.888s-.547.448-.887.589c-.34.14-.703.21-1.09.21v.001zM33.31 13V7.428c.28-.422.647-.797 1.098-1.125.451-.328 1.005-.492 1.661-.492.914 0 1.585.21 2.013.632.428.422.642 1.073.642 1.952V13h4.166V8.025c0-1.418-.413-2.446-1.24-3.085-.826-.638-2.124-.958-3.893-.958-1.067 0-1.96.153-2.68.457-.722.305-1.31.68-1.767 1.125V.38h-4.29V13h4.29zm14.976 0V7.428c.281-.422.648-.797 1.099-1.125.45-.328 1.005-.492 1.66-.492.915 0 1.586.21 2.014.632.427.422.641 1.073.641 1.952V13h4.166V8.025c0-1.418-.413-2.446-1.24-3.085-.825-.638-2.123-.958-3.893-.958-1.066 0-1.96.153-2.68.457-.721.305-1.31.68-1.767 1.125V4h-4.289v9h4.29-.001zm23.45 0V4.58L75.954 13h4.412l4.131-8.244V13h4.623V.396h-4.957l-4.71 9.053L74.935.396H69.45V13h2.286zm24.925.387c.809 0 1.57-.13 2.285-.387.715-.258 1.34-.606 1.872-1.046.534-.44.955-.955 1.266-1.547.31-.592.466-1.221.466-1.89 0-.75-.138-1.43-.413-2.038-.276-.61-.668-1.125-1.178-1.547-.51-.422-1.125-.742-1.846-.958-.72-.217-1.538-.326-2.452-.326-.82 0-1.585.13-2.294.387-.709.258-1.33.604-1.863 1.037-.533.434-.952.95-1.257 1.547-.305.598-.457 1.23-.457 1.899 0 .668.126 1.297.378 1.89.252.591.624 1.107 1.116 1.546.492.44 1.105.788 1.837 1.046s1.58.387 2.54.387zm12.885 0c.808 0 1.57-.13 2.285-.387.715-.258 1.339-.606 1.872-1.046.533-.44.955-.955 1.266-1.547.31-.592.466-1.221.466-1.89 0-.75-.138-1.43-.414-2.038-.275-.61-.668-1.125-1.177-1.547-.51-.422-1.125-.742-1.846-.958-.72-.217-1.538-.326-2.452-.326-.82 0-1.585.13-2.294.387-.71.258-1.33.604-1.863 1.037-.534.434-.953.95-1.257 1.547-.305.598-.457 1.23-.457 1.899 0 .668.126 1.297.378 1.89.252.591.624 1.107 1.116 1.546.492.44 1.104.788 1.837 1.046.732.258 1.579.387 2.54.387zm12.498-.035c.902 0 1.696-.126 2.382-.378.685-.252 1.257-.583 1.714-.994V13h4.289V.396h-4.29V5.02c-.386-.329-.864-.583-1.432-.765-.568-.182-1.333-.273-2.294-.273-.844 0-1.623.13-2.338.387-.715.258-1.333.612-1.854 1.064-.522.45-.929.981-1.222 1.59-.293.61-.44 1.26-.44 1.952 0 .62.135 1.198.405 1.731.27.533.644 1 1.125 1.398.48.398 1.055.706 1.722.922.668.217 1.413.326 2.233.326zm1.512-1.829c-.41 0-.788-.079-1.134-.237-.346-.158-.645-.369-.897-.633-.252-.263-.448-.568-.588-.914-.141-.345-.211-.718-.211-1.116 0-.363.073-.712.22-1.046.146-.334.348-.633.606-.896.258-.264.556-.475.896-.633.34-.158.71-.237 1.108-.237 1.148 0 2.01.246 2.584.738v4.078c-.282.305-.619.53-1.011.677-.393.146-.917.22-1.573.22v-.001zm14.748 1.829c1.406 0 2.53-.123 3.375-.37.843-.246 1.497-.542 1.96-.887.463-.346.767-.703.914-1.073.146-.369.22-.682.22-.94 0-.469-.118-.864-.352-1.186-.234-.323-.54-.592-.914-.81-.375-.216-.809-.392-1.301-.526-.492-.135-.99-.244-1.494-.326-.504-.082-1.002-.152-1.494-.21-.492-.06-.929-.124-1.31-.194-.38-.07-.685-.158-.914-.264-.228-.105-.343-.246-.343-.421 0-.211.161-.37.484-.475.322-.106.864-.158 1.626-.158.539 0 1.051.04 1.538.123.486.082.926.178 1.318.29.393.111.727.225 1.002.343.276.117.478.21.607.28l1.177-.93c-.234-.2-.533-.396-.896-.59-.363-.193-.8-.369-1.31-.527-.51-.158-1.095-.281-1.758-.37-.662-.087-1.415-.131-2.258-.131-1.184 0-2.165.097-2.945.29-.779.193-1.394.44-1.845.738-.452.3-.762.621-.932.967-.17.346-.255.677-.255.993 0 .633.2 1.149.598 1.547.398.399.902.715 1.511.95.586.234 1.23.41 1.934.527l1.969.334c.597.105 1.095.22 1.494.342.398.124.598.302.598.537 0 .175-.15.319-.449.43-.298.112-.794.167-1.485.167-1.148 0-2.156-.126-3.023-.378-.868-.252-1.553-.594-2.057-1.028l-1.46.95c.235.187.522.395.862.623.34.229.765.446 1.275.65.51.206 1.116.376 1.819.51.703.135 1.541.203 2.514.203z" fill="#FFF"/>
        <path d="M97.576 11.014c-.398 0-.767-.07-1.107-.211-.34-.14-.636-.337-.888-.59-.252-.251-.451-.544-.598-.878-.146-.334-.22-.7-.22-1.099 0-.386.074-.75.22-1.09.147-.34.346-.638.598-.896s.548-.46.888-.606c.34-.147.709-.22 1.107-.22.387 0 .75.073 1.09.22.34.146.636.348.888.606s.454.557.606.896c.152.34.229.704.229 1.09 0 .387-.077.75-.229 1.09-.152.34-.354.636-.606.888s-.548.448-.888.589c-.34.14-.703.21-1.09.21v.001z" fill-rule="evenodd" fill="#000" class="eye"/>
        <path d="M110.46 11.014c-.397 0-.767-.07-1.106-.211-.34-.14-.636-.337-.888-.59-.252-.251-.451-.544-.598-.878-.146-.334-.22-.7-.22-1.099 0-.386.074-.75.22-1.09.147-.34.346-.638.598-.896s.548-.46.888-.606c.34-.147.709-.22 1.107-.22.387 0 .75.073 1.09.22.34.146.636.348.887.606.252.258.455.557.607.896.152.34.228.704.228 1.09 0 .387-.076.75-.228 1.09-.152.34-.355.636-.607.888-.251.252-.547.448-.887.589-.34.14-.703.21-1.09.21l-.001.001z" fill-rule="evenodd" fill="#000" class="eye"/>
    </g>
</svg>
